<svg xmlns="http://www.w3.org/2000/svg" viewBox="0 0 18.91 18.91"><defs><style>.cls-1{fill:#edebd8;}</style></defs><title>facebook0</title><g id="Capa_2" data-name="Capa 2"><g id="Layer_1" data-name="Layer 1"><path class="cls-1" d="M13.72,5.93c-1.18,0-1.41.57-1.41,1.39V9.15"/><path class="cls-1" d="M12.31,9.15h2.6a.41.41,0,0,1,.41.46l-.26,2.18a.4.4,0,0,1-.41.36H12.32v6.76h4a2.55,2.55,0,0,0,2.55-2.55V2.55A2.55,2.55,0,0,0,16.36,0H2.55A2.55,2.55,0,0,0,0,2.55V16.36a2.55,2.55,0,0,0,2.55,2.55H9.36V12.15H7.62a.41.41,0,0,1-.42-.41V9.56a.41.41,0,0,1,.42-.41H9.36V7A3.44,3.44,0,0,1,13,3.27h1.79a.41.41,0,0,1,.41.41V5.52a.41.41,0,0,1-.41.41h-1.1"/></g></g></svg>