<svg xmlns="http://www.w3.org/2000/svg" viewBox="0 0 18.91 18.91"><defs><style>.cls-1{fill:#edebd8;}</style></defs><title>instagram0</title><g id="Capa_2" data-name="Capa 2"><g id="Layer_1" data-name="Layer 1"><path class="cls-1" d="M13.28,0H5.63A5.64,5.64,0,0,0,0,5.63v7.65a5.64,5.64,0,0,0,5.63,5.63h7.65a5.64,5.64,0,0,0,5.63-5.63V5.63A5.64,5.64,0,0,0,13.28,0ZM17,13.28A3.73,3.73,0,0,1,13.28,17H5.63A3.73,3.73,0,0,1,1.9,13.28V5.63A3.73,3.73,0,0,1,5.63,1.9h7.65A3.73,3.73,0,0,1,17,5.63v7.65Z"/><path class="cls-1" d="M9.46,4.56a4.9,4.9,0,1,0,4.89,4.9A4.91,4.91,0,0,0,9.46,4.56Zm0,7.88a3,3,0,1,1,3-3A3,3,0,0,1,9.46,12.44Z"/><circle class="cls-1" cx="14.36" cy="4.6" r="1.17"/></g></g></svg>