<svg xmlns="http://www.w3.org/2000/svg" viewBox="0 0 1361.57 855"><defs><style>.cls-1{fill:#ecead7;}</style></defs><title>logo_1</title><g id="Capa_2" data-name="Capa 2"><g id="Layer_1" data-name="Layer 1"><path class="cls-1" d="M1355.56,257.47C1237.08,105.69,972.21,7.63,680.79,7.63S124.5,105.69,6,257.46l-6-4.7C119.89,99.22,387.11,0,680.79,0s560.9,99.22,680.78,252.77Z"/><path class="cls-1" d="M680.79,855c-275.6,0-527.59-86.5-657.66-225.74L28.71,624C157.37,761.8,407.23,847.37,680.79,847.37s523.38-85.56,652.05-223.3l5.57,5.21C1208.34,768.5,956.36,855,680.79,855Z"/><path class="cls-1" d="M680.79,700c-146.35,0-286.66-24.81-395.09-69.84l2.92-7.05c107.53,44.66,246.8,69.26,392.17,69.26s284.63-24.6,392.17-69.26l2.92,7.05C967.44,675.23,827.13,700,680.79,700Z"/><path class="cls-1" d="M236.22,258.45l-3.66-6.68C344.93,190.25,509.56,155,684.23,155s339.26,35.28,451.62,96.79l-3.66,6.68c-111.28-60.91-274.56-95.84-448-95.84S347.5,197.53,236.22,258.45Z"/><path class="cls-1" d="M284.58,111.58l44.23,59.7-13.63,5.16-10.44-14.28-22.06,8.35,1.42,17.68-5.42,2.05-5.53-74.35Zm-2.35,53.49,19.35-7.33-22.25-30.32Z"/><path class="cls-1" d="M336.67,168.73l-20.55-68.48,23.61-7.09c6.5-2,12.44-2.35,17.78-1.18q9.93,2.16,12.68,11.29,2.24,7.5-3,15-2.26,3.27-8.57,6.49,4.25,0,6,.12a16.94,16.94,0,0,1,5.62,1.56c3.37,1.81,6.23,6.22,8.54,13.21,2.37,7.35,5,12,7.93,14.08l-15.21,4.56q-2.94-3.15-6-12.87t-5.62-12.75q-4.5-5.26-13-2.69l-6.15,1.84,9.83,32.75Zm2.74-41.22,6.37-1.91q14.67-4.41,10.67-17.76T337.79,99l-6.36,1.92Z"/><path class="cls-1" d="M422.7,71.75,423.93,77l-16.69,4,15.21,64.35-14.71,3.48L392.53,84.38l-16.8,4-1.23-5.22Z"/><path class="cls-1" d="M479.08,80.78l-6.52,3a29.51,29.51,0,0,0-.44-5.36,10.89,10.89,0,0,0-6.54-8.4,18.38,18.38,0,0,0-11.11-1.12,14.37,14.37,0,0,0-8.35,4.35,10.11,10.11,0,0,0-2.41,8.94q1.32,7.17,11.83,9.83,9.7,2.47,19.53,4.93,10.83,4.45,12.9,15.73a18.72,18.72,0,0,1-1,10.21,21.4,21.4,0,0,1-5.94,8.59q-4.79,4.26-14.06,6t-16.45-1.79q-7.89-3.81-9.55-12.87c-.16-.9-.36-2.36-.57-4.36l7.1-3.48a33,33,0,0,0,.38,8.66,11.38,11.38,0,0,0,6.65,8.37,16.66,16.66,0,0,0,10.87,1.61,16.13,16.13,0,0,0,9.14-4.83,10.55,10.55,0,0,0,2.95-9.48q-1.27-7-11.16-9.83-9.19-2.58-18.48-5.13-10.31-4.42-12.53-14.92a19.07,19.07,0,0,1,3.57-16.24q5.2-6.73,14.69-8.45Q475.42,60.74,479.08,80.78Z"/><path class="cls-1" d="M533.25,125.8l-7.11-71.13,22.94-2.3q15.66-1.56,24.7,7.88,8.18,8.55,9.78,24.66,1.65,16.43-4.81,26.22-7.11,10.85-23.22,12.45ZM547,119.69l7.15-.71q11.19-1.11,14.08-12.17,1.6-6.63.23-20.39-1.39-14-4.26-19.94-4.8-10.29-16.21-9.15l-7.14.72Z"/><path class="cls-1" d="M636.66,46.31l.27,5.46L610.37,53.1l1.2,24L634.05,76l.25,5L611.82,82.1l1.57,31.7,30.51-1.52.26,5.25-45,2.22-3.54-71.4Z"/><path class="cls-1" d="M700.3,45.91,699.13,112l30.44.55-.1,5.35-44.58-.8,1.27-71.48Z"/><path class="cls-1" d="M772.38,48.91,788,121.57l-14.55-.95-3.61-17.3-23.53-1.53-6,16.69-5.77-.38,25.69-70ZM748.13,96.64,768.77,98l-7.71-36.8Z"/><path class="cls-1" d="M878.6,60.66,877.88,66l-17-2.31L852,129.18l-15-2,8.92-65.53-17.1-2.33.72-5.31Z"/><path class="cls-1" d="M911.89,66.61l7.18,74L904.73,138l-1.61-17.61-23.2-4.21L872,132.05l-5.7-1,33.54-66.57Zm-29.55,44.65L902.69,115,899.24,77.5Z"/><path class="cls-1" d="M927.75,142.47,944.54,73,970,79.11q9.46,2.3,14.79,7.66a15.5,15.5,0,0,1,4.13,15.34q-2.8,11.67-18.52,11.84,16.64,7.89,13.1,22.46a16.54,16.54,0,0,1-10.33,12.17c-4.84,2.08-10.35,2.35-16.53.87Zm15.17-1.19,8.34,2q14.18,3.44,17.47-10.22c1.15-4.79.9-8.9-.78-12.32q-2.78-5.4-9.86-7.12l-8-1.94Zm8.26-34.17,9.38,2.27q11,2.67,14.16-10.26t-8.65-15.76l-8.64-2.09Z"/><path class="cls-1" d="M1023.92,93.8,1004.51,157l29.1,8.93-1.57,5.12L989.41,158l21-68.34Z"/><path class="cls-1" d="M1103.54,121.61l-1.94,5.11-24.85-9.41-8.51,22.45,21,8-1.78,4.71-21-8-11.25,29.67L1083.79,185l-1.87,4.9-42.1-15.94,25.33-66.87Z"/><path class="cls-1" d="M455.13,737.05c.38-1.09.73-2.12,1-3.08a26.93,26.93,0,0,0,.73-2.61,9.73,9.73,0,0,0-.16-4.89,12.48,12.48,0,0,0-2.35-4.37,15.47,15.47,0,0,0-4.19-3.5,19,19,0,0,0-5.68-2.16q-8.4-1.8-12.65,2.67a12.23,12.23,0,0,0-2.82,5.44,10,10,0,0,0,1.24,7.8q2.18,3.38,8.75,7.54,4.33,2.8,7.86,5.54a73.41,73.41,0,0,1,6.17,5.28,18.51,18.51,0,0,1,5.28,8.34,20.87,20.87,0,0,1,.07,10.18,20.59,20.59,0,0,1-3.54,8,19.41,19.41,0,0,1-6.28,5.47,23.3,23.3,0,0,1-8.42,2.64,29.86,29.86,0,0,1-10-.56,34.86,34.86,0,0,1-9.28-3.31,22.36,22.36,0,0,1-6.56-5.2,16.32,16.32,0,0,1-3.44-6.72,17.24,17.24,0,0,1,0-7.8c.12-.56.29-1.27.52-2.14s.47-1.78.75-2.75l7.9-.49a32.72,32.72,0,0,0-2.79,7.37,12.14,12.14,0,0,0,.07,5.53,14.21,14.21,0,0,0,2.33,5,14.82,14.82,0,0,0,4.28,3.87,18.64,18.64,0,0,0,5.87,2.3,16.73,16.73,0,0,0,5.65.28,14.63,14.63,0,0,0,4.93-1.51,11.48,11.48,0,0,0,3.74-3.09,10.66,10.66,0,0,0,2.05-4.44,10.46,10.46,0,0,0-.56-6.58,17.32,17.32,0,0,0-5.15-6.15c-.31-.29-.59-.53-.83-.73l-1.18-.91c-.54-.41-1.32-.94-2.35-1.6s-2.46-1.63-4.31-2.9a55.71,55.71,0,0,1-7.41-5.87,21.79,21.79,0,0,1-4.44-5.89,17.06,17.06,0,0,1-1.8-6.46,26.6,26.6,0,0,1,.62-7.49,18.92,18.92,0,0,1,3.4-7.6,18.48,18.48,0,0,1,6.1-5.15,22.42,22.42,0,0,1,8.21-2.46,30.27,30.27,0,0,1,9.69.61,26.07,26.07,0,0,1,9.9,4.26,17.63,17.63,0,0,1,6.06,7.29,14,14,0,0,1,1.15,5.35,32.94,32.94,0,0,1-.91,7.33Z"/><path class="cls-1" d="M517.69,799l-14.42-2.26-2-17.58-23.32-3.65-7.52,16.1-5.72-.9,31.94-67.45,12.09,1.88Zm-17-25.26-4.37-37.39-16.1,34.2Z"/><path class="cls-1" d="M577.8,805.26l-11-1.1-24.86-57.4-5.46,54.35-5.23-.53,7.15-71.22,10.79,1.09,25.29,57.44,5.46-54.35,5,.5Z"/><path class="cls-1" d="M637.94,737.06l23.71.4q13.41.22,20.41,5.6t6.82,15.46q-.18,10.85-7.35,16t-22,4.89l-7.73-.13-.49,29.61-14.6-.24Zm20.51,37.37q8.16.14,11.92-3.63t3.91-12.2q.15-8.33-3.55-12.22t-11.74-4l-6.54-.11-.54,32.08Z"/><path class="cls-1" d="M742.28,741.64l-26.6.81.74,24.35,22.53-.69.15,4.94-22.53.69,1,31.75,30.57-.94.16,5.26-45,1.38L701,737.64l41.08-1.26Z"/><path class="cls-1" d="M757.42,735.64l23.1-1.91a35.35,35.35,0,0,1,12.91,1.13,26.85,26.85,0,0,1,10.15,5.46,29.55,29.55,0,0,1,7.31,11,51.24,51.24,0,0,1,3.59,15.37,48.55,48.55,0,0,1-2,19.66,25.91,25.91,0,0,1-9.3,13.15q-6.72,4.75-17.41,5.64L763.33,807Zm27,65a16.61,16.61,0,0,0,8-2.65,14.76,14.76,0,0,0,5.25-6.2q1.37-3,1.77-9.24a103.94,103.94,0,0,0-.31-14.78q-.92-11-2.86-16.94T790.79,742a15.7,15.7,0,0,0-11.46-3.25l-7.28.6,5.12,61.82Z"/><path class="cls-1" d="M825,729.53,849.42,726q12.21-1.74,19.5,2.19a17.42,17.42,0,0,1,6.26,5.11,15,15,0,0,1,2.84,6.9,16.28,16.28,0,0,1-1,8.11,18.87,18.87,0,0,1-4.61,7.1,16.72,16.72,0,0,1-3.5,2.45,35.72,35.72,0,0,1-5.49,2.2,34.25,34.25,0,0,1,7,1.27,15.26,15.26,0,0,1,4.79,2.41,10.9,10.9,0,0,1,3.09,3.79,23.05,23.05,0,0,1,1.83,5.54q1.27,5.89,2,9.37a46.68,46.68,0,0,0,1.5,5.48,13,13,0,0,0,1.46,3,10.94,10.94,0,0,0,1.86,2l-15.72,2.26q-.69-1-1.2-1.83a11.22,11.22,0,0,1-.87-1.94,22,22,0,0,1-.71-2.66q-.35-1.57-.81-4.11-1-5.38-1.69-8.76t-1.33-5.45a13.08,13.08,0,0,0-1.33-3.17,10.71,10.71,0,0,0-1.58-1.94,8.85,8.85,0,0,0-4.41-1.86,20.57,20.57,0,0,0-6.31,0l-6.41.92,4.87,33.89-14.34,2Zm25.61,29.39a25.47,25.47,0,0,0,6.26-1.54,12.27,12.27,0,0,0,3.91-2.73Q865,750,864,743c-.67-4.66-2.79-8.09-6.38-10.32a12.45,12.45,0,0,0-4.52-1.51,25.25,25.25,0,0,0-6.44.28l-6.62,1,4,27.51Z"/><path class="cls-1" d="M914.7,713.19a27.17,27.17,0,0,1,13.17.31,24.42,24.42,0,0,1,10.83,6.38,34.62,34.62,0,0,1,6.2,9.72,67.13,67.13,0,0,1,4.49,14q4.38,20.89-2.73,31.38-6,8.5-17.24,10.86a28.86,28.86,0,0,1-13.64-.2,23.25,23.25,0,0,1-10.88-6.38,33.09,33.09,0,0,1-6.25-9.93A73,73,0,0,1,894,754.71a58.84,58.84,0,0,1-1.33-17.6,27.48,27.48,0,0,1,4.24-13Q902.94,715.67,914.7,713.19Zm.13,4.25a10.14,10.14,0,0,0-5.59,3.15,11.28,11.28,0,0,0-2.79,6.07,31,31,0,0,0-.31,4.5q0,2.37.3,5.37c.21,2,.54,4.29,1,6.86s1,5.54,1.76,8.9,1.35,6.29,2,8.8,1.2,4.72,1.83,6.63,1.25,3.59,1.88,5a30.1,30.1,0,0,0,2.1,4,10.9,10.9,0,0,0,5,4.49,10.74,10.74,0,0,0,6.58.54,10.56,10.56,0,0,0,5.8-3.2,11.31,11.31,0,0,0,2.78-6.06,31.19,31.19,0,0,0,.32-4.51,53.09,53.09,0,0,0-.3-5.31q-.28-3-1-6.65t-1.66-8.43q-1.1-5.25-2-9.22t-1.9-6.95q-1-3-1.9-5.13a27.42,27.42,0,0,0-2.08-3.9Q922.39,715.85,914.83,717.44Z"/></g></g></svg>