<svg xmlns="http://www.w3.org/2000/svg" viewBox="0 0 106.8 20.35"><defs><style>.cls-1{fill:#edebd8;}</style></defs><title>logo-letters0</title><g id="Capa_2" data-name="Capa 2"><g id="Layer_1" data-name="Layer 1"><g id="_Grupo_" data-name="&lt;Grupo&gt;"><g id="_Grupo_2" data-name="&lt;Grupo&gt;"><path id="_Trazado_compuesto_" data-name="&lt;Trazado compuesto&gt;" class="cls-1" d="M3.13,4.25V18.9H9.88v1.19H0V4.25Z"/><path id="_Trazado_compuesto_2" data-name="&lt;Trazado compuesto&gt;" class="cls-1" d="M8.29,10.26v-1A2.69,2.69,0,0,0,9.6,7.17,1.44,1.44,0,0,1,8.06,5.53a1.44,1.44,0,0,1,.46-1.08A1.54,1.54,0,0,1,9.6,4a1.36,1.36,0,0,1,1.15.56,2.12,2.12,0,0,1,.42,1.32,4.82,4.82,0,0,1-.8,2.66A4.17,4.17,0,0,1,8.29,10.26Z"/><path id="_Trazado_compuesto_3" data-name="&lt;Trazado compuesto&gt;" class="cls-1" d="M17,12v8.05H13.85V4.25H17v6.63h5V4.25h3.18V20.09H22.07V12Z"/><path id="_Trazado_compuesto_4" data-name="&lt;Trazado compuesto&gt;" class="cls-1" d="M37.34,4.25V5.46H31.45v5.32h5V11.9h-5v7h6.77v1.16h-10V4.25ZM32.54,3h-.85l1.94-3h2.93Z"/><path id="_Trazado_compuesto_5" data-name="&lt;Trazado compuesto&gt;" class="cls-1" d="M40,20.09V4.25h5.46a7.8,7.8,0,0,1,3.85.88,3.49,3.49,0,0,1,2,3.21,3.73,3.73,0,0,1-1.59,3,5.22,5.22,0,0,1-2.23.83c.6.17,1,.31,1.26.4a3.77,3.77,0,0,1,1.09.69,4.92,4.92,0,0,1,1,3.35,6.16,6.16,0,0,0,.79,3.49H48A8.13,8.13,0,0,1,47.55,17a8.71,8.71,0,0,0-.38-3.06,2.51,2.51,0,0,0-2.59-1.4H43.16v7.57Zm3.21-8.57h1.47c2.26,0,3.4-1,3.4-3.09s-1.14-3.06-3.4-3.06H43.16Z"/><path id="_Trazado_compuesto_6" data-name="&lt;Trazado compuesto&gt;" class="cls-1" d="M57,4.25V20.09H53.8V4.25Z"/><path id="_Trazado_compuesto_7" data-name="&lt;Trazado compuesto&gt;" class="cls-1" d="M69.4,4.25V5.44H65.6V20.09H62.25V5.44H58.43V4.25Z"/><path id="_Trazado_compuesto_8" data-name="&lt;Trazado compuesto&gt;" class="cls-1" d="M76.67,4.25l4.49,15.84H77.92l-1-3.78H71.66l-1.1,3.78H69.28L74,4.25ZM72,15.15h4.58l-2.23-8Z"/><path id="_Trazado_compuesto_9" data-name="&lt;Trazado compuesto&gt;" class="cls-1" d="M88,11.83h6.3v8.24h-1l-.43-1.14A6.65,6.65,0,0,1,91,20.06a7.06,7.06,0,0,1-2.2.29A6.11,6.11,0,0,1,83.58,18,9.35,9.35,0,0,1,82,12.23a9.21,9.21,0,0,1,1.73-5.75A6.33,6.33,0,0,1,89,4q4.08,0,4.86,4.42l-1.54.76q0-4.14-3-4.14A3.33,3.33,0,0,0,86,7.58a15.16,15.16,0,0,0-.52,4.6A28,28,0,0,0,85.67,16a4.28,4.28,0,0,0,1,2.33,3,3,0,0,0,2.21,1.09,2.5,2.5,0,0,0,1.68-.48,1.81,1.81,0,0,0,.79-1.56V13H88Z"/><path id="_Trazado_compuesto_10" data-name="&lt;Trazado compuesto&gt;" class="cls-1" d="M105.93,4.25V5.46H100v5.32h5V11.9h-5v7h6.76v1.16h-10V4.25Z"/></g></g></g></g></svg>