<svg xmlns="http://www.w3.org/2000/svg" viewBox="0 0 248.82 38.36"><defs><style>.cls-1{fill:#eeecd9;stroke:#eeecd9;stroke-miterlimit:10;stroke-width:0.5px;}</style></defs><title>Recurso 2</title><g id="Capa_2" data-name="Capa 2"><g id="Layer_1" data-name="Layer 1"><path class="cls-1" d="M53.8,15.67c5.5-.22,12.31-5,12.31-10.57,0-2.83-2.56-4-5.28-4a16,16,0,0,0-9.64,3.7,9.3,9.3,0,0,1,1.69,5.23c0,4.63-5.07,8.28-7.9,8.28a1.71,1.71,0,0,1-1.91-1.85,2,2,0,0,1,1.74-2c.49,0,.65.27.65.6a1.29,1.29,0,0,1-1.36,1.2,3.85,3.85,0,0,1-.76-.05v.22A1.44,1.44,0,0,0,44.86,18c2.45,0,7-3.65,7-8.44a9,9,0,0,0-1.09-4.41C46,9,41.92,14.74,38.71,19.59,34.41,26,29.28,32.88,20.46,36.15a37.76,37.76,0,0,0,7.46.87c9.86,0,16.34-5.39,16.34-8.5,0-1.2-1-2.07-3.32-2.07-4.9,0-8.61,6.92-8.61,6.92L32,33.26s3.81-7.14,8.93-7.14c2.51,0,3.65,1,3.65,2.4,0,3.21-6.59,8.82-16.67,8.82a36.26,36.26,0,0,1-8-1,32.87,32.87,0,0,1-11.17,1.8c-5.61,0-8.5-1.36-8.5-2.51,0-1,1.91-1.85,5.88-1.85,4.58,0,9,1.31,13.62,2.29,8.66-3.27,12.53-10.46,18-17.7,3-3.92,7.52-9.7,12.75-13.51C49,2.37,46,.58,41.11.58,25,.58,13.32,14.25,13.32,21.77c0,2.78,1.63,4.74,5.34,4.74,8.5,0,17.16-9.64,17.16-14.49,0-1.58-.87-2.61-2.89-2.61-5,0-9.86,5.67-12.42,9.48l-.22-.22c2.56-3.81,7.52-9.59,12.64-9.59,2.23,0,3.21,1.14,3.21,2.94,0,5.83-8.06,14.82-17.49,14.82-3.92,0-5.67-2.07-5.67-5.07C13,14.14,24.76.25,41.11.25,46,.25,49.17,2.1,51,4.5c3.1-2.18,6.43-3.7,9.86-3.7,2.94,0,5.61,1.25,5.61,4.3,0,5.77-7,10.68-12.64,10.89ZM19.26,36.2c-4.3-.93-8.61-2.12-13.13-2.12-3.76,0-5.56.76-5.56,1.53,0,1,2.78,2.18,8.17,2.18A32.38,32.38,0,0,0,19.26,36.2Z"/><path class="cls-1" d="M65.51,25.53a3.81,3.81,0,0,1-2.45,1.14c-.82,0-1.53-.49-1.53-1.91a14.68,14.68,0,0,1,1-5.12,58.83,58.83,0,0,0-8.28,8.17l-5.39,8.33H47.42c.44-.65,4.68-7.35,9.53-14.71A6.31,6.31,0,0,0,58,18.93c0-.33-.27-.49-.65-.49-1.8,0-4.25,3.27-7.24,6.26l-.82.82-.27-.11.87-.93c3.11-3.27,5.56-6.37,7.52-6.37.82,0,1.14.54,1.14,1.31,0,1.91-1.47,4.14-3.11,6.54a46.81,46.81,0,0,1,7.41-7.08c.44-.65.87-1.09,1.47-1.09a.29.29,0,0,1,.33.33c0,.44-.76.65-1.2.87-1.2,1.47-1.58,4.14-1.58,5.88,0,1,.49,1.47,1.2,1.47a3.4,3.4,0,0,0,2.18-1l.82-.82.22.22Z"/><path class="cls-1" d="M80.6,25.53a6.33,6.33,0,0,1-4.68,1.8,11.86,11.86,0,0,1-1.42-.05c-3.21,4.68-8.28,9.32-11.71,9.32a1.85,1.85,0,0,1-1.91-2.07c0-5.39,9.48-16.89,14.93-16.89,1.31,0,1.91,1,1.91,2.18,0,1.85-1.2,4.47-3,7.14A8.82,8.82,0,0,0,76,27a6,6,0,0,0,4.41-1.69l.82-.82.22.22Zm-19.12,9c0,1.09.38,1.74,1.31,1.74,5.34,0,14.6-12.42,14.6-16.67A1.41,1.41,0,0,0,75.8,18C70.3,18,61.48,32.93,61.48,34.51Z"/><path class="cls-1" d="M93.34,24.49l.22.22-.82.82c-4.25,4.25-11.33,11.22-15,11.22-1.09,0-1.91-.87-1.91-2.56,0-5.77,9.15-16.56,14.49-16.56.93,0,1.42.44,1.42,1.14,0,1.36-1,2.45-1.69,2.45-.22,0-.33-.11-.33-.27,0-.38.54-1.14,1.53-1.53a1.16,1.16,0,0,0,.16-.65c0-.49-.38-.82-1.09-.82C85.06,18,76.4,32,76.4,34.46c0,1.47.44,2,1.31,2,3.6,0,10.57-6.86,14.82-11.11Z"/><path class="cls-1" d="M95.74,34.9c0-2.23,2.29-5.34,4.14-7.79,1-1.25,5-6.92,5-8.12,0-.38-.11-.76-.6-.76-3.49,0-10.4,8.28-12.15,10.4-2.72,4.19-4.74,7.35-4.9,7.52H85.77c1-1.58,23.37-35.9,23.37-35.9h1.42S100.26,16.1,93.34,26.72c2.83-3.27,8-8.82,10.89-8.82a1.25,1.25,0,0,1,1.25,1.42c0,2.67-2.56,5.61-4.47,8.28-1.74,2.45-4.63,6.7-4.63,7.74,0,.54.38.93,1.2.93,3.32,0,9.21-8.12,12-10.95l.82-.82.22.22-.82.82c-2.72,2.72-8.77,11.06-12.26,11.06A1.68,1.68,0,0,1,95.74,34.9Z"/><path class="cls-1" d="M116.27,29c-2.94,3.92-6.65,7.63-9.31,7.63a1.85,1.85,0,0,1-1.91-2.07c0-5.39,9.48-16.89,14.93-16.89a1.19,1.19,0,0,1,1.36,1.31,12.09,12.09,0,0,1-1.58,4.63c2.18-3.27,3.76-5.56,3.76-5.56h1.42c.05-.11-4.19,6.26-8.93,13.35,0,.05-1.63,2.61-1.63,4,0,.54.22.87.87.87,3.32,0,9.21-8.12,12-10.95l.82-.82.22.22-.82.82c-2.72,2.72-8.77,11.06-12.26,11.06-1,0-1.42-.82-1.42-1.91a7.25,7.25,0,0,1,1.09-3.54Zm1.09-1.85c2.45-3.43,3.65-6.54,3.65-8.17a.81.81,0,0,0-.93-.93c-5.72,0-14.44,14.93-14.44,16.51,0,1.09.38,1.74,1.31,1.74C110,36.26,114.2,31.52,117.36,27.11Z"/><path class="cls-1" d="M132.29,18h1.42c.05-.11-4.19,6.26-8.93,13.35,0,.05-1.63,2.61-1.63,4,0,.54.22.87.87.87,3.32,0,9.75-8.12,12.58-10.95l.82-.82.22.22-.82.82c-2.72,2.72-9.31,11.06-12.8,11.06-1,0-1.42-.82-1.42-1.91a7.26,7.26,0,0,1,1.09-3.54C128.09,24.16,132.29,18,132.29,18Zm3.81-5.94,1.09-1.63h1.42l-1.09,1.63Z"/><path class="cls-1" d="M141.82,27.65c3.05-3.6,8.66-9.75,11.55-9.75a1.25,1.25,0,0,1,1.25,1.42c0,3-3.16,7-5.34,10.19-.82,1.2-3.32,4.41-3.32,5.94,0,.49,0,.82.76.82,2.23,0,8.12-8.12,10.95-10.95l.82-.82.22.22-.82.82c-2.72,2.72-8.77,11.06-11.17,11.06-1,0-1.42-.6-1.42-1.69,0-1.74,1.42-4,2.89-6.1S154,21.49,154,19c0-.38-.11-.76-.6-.76-3.49,0-11.11,9.32-12.86,11.44-2.4,3.65-4.09,6.32-4.19,6.48H134.9c.44-.65,4.68-7.35,9.53-14.71a6.31,6.31,0,0,0,1.09-2.51c0-.33-.27-.49-.65-.49-1.8,0-4.25,3.27-7.24,6.26l-.82.82-.27-.11.87-.93c3.11-3.27,5.56-6.37,7.52-6.37.82,0,1.14.54,1.14,1.31C146.07,21.77,143.83,24.6,141.82,27.65Z"/><path class="cls-1" d="M153.09,34.19c0-5.77,9.15-16.56,14.49-16.56.82,0,1.14.33,1.14.82,0,1.91-5.12,6.7-11.11,8.33-2.29,3.38-3.92,6.65-3.92,7.68,0,1.47.44,2,1.31,2,3.6,0,10.57-6.86,14.82-11.11l.82-.82.22.22-.82.82c-4.25,4.25-11.33,11.22-15,11.22C153.91,36.75,153.09,35.88,153.09,34.19Zm4.85-7.84c5.56-1.58,10.4-6.21,10.4-7.84,0-.33-.27-.54-.76-.54C164.69,18,160.88,22.15,157.94,26.34Z"/><path class="cls-1" d="M175.26,27.38c3.05-3.6,8.5-9.48,11.28-9.48.82,0,1.14.54,1.14,1.31,0,2.34-2.12,5.34-4.14,8.5,3.05-3.54,8.72-9.81,11.6-9.81a1.25,1.25,0,0,1,1.25,1.42c0,3-3.16,7-5.34,10.19-.82,1.2-3.32,4.41-3.32,5.94,0,.49,0,.82.76.82,2.23,0,8.12-8.12,10.95-10.95l.82-.82.22.22-.82.82c-2.72,2.72-8.77,11.06-11.17,11.06-1,0-1.42-.6-1.42-1.69,0-1.74,1.42-4,2.89-6.1s5.77-7.3,5.77-9.81c0-.38-.11-.76-.6-.76-3.49,0-11.11,9.32-12.86,11.44-2.4,3.65-4.09,6.32-4.19,6.48h-1.42l9.53-14.71a5.89,5.89,0,0,0,.93-2.51c0-.44-.16-.71-.6-.71-3.32,0-10.35,8.33-12.53,11.06l-4.47,6.86h-1.42c.44-.65,4.68-7.35,9.53-14.71a6.31,6.31,0,0,0,1.09-2.51c0-.33-.27-.49-.65-.49-1.8,0-4.25,3.27-7.24,6.26l-.82.82-.27-.11.87-.93c3.11-3.27,5.56-6.37,7.52-6.37.82,0,1.14.54,1.14,1.31C179.29,21.66,177.22,24.44,175.26,27.38Z"/><path class="cls-1" d="M194.87,34.19c0-5.77,9.15-16.56,14.49-16.56.82,0,1.14.33,1.14.82,0,1.91-5.12,6.7-11.11,8.33-2.29,3.38-3.92,6.65-3.92,7.68,0,1.47.44,2,1.31,2,3.6,0,10.57-6.86,14.82-11.11l.82-.82.22.22-.82.82c-4.25,4.25-11.33,11.22-15,11.22C195.69,36.75,194.87,35.88,194.87,34.19Zm4.85-7.84c5.56-1.58,10.4-6.21,10.4-7.84,0-.33-.27-.54-.76-.54C206.47,18,202.66,22.15,199.72,26.34Z"/><path class="cls-1" d="M216.82,27.65c3.05-3.6,8.66-9.75,11.55-9.75a1.25,1.25,0,0,1,1.25,1.42c0,3-3.16,7-5.34,10.19-.82,1.2-3.32,4.41-3.32,5.94,0,.49,0,.82.76.82,2.23,0,8.12-8.12,10.95-10.95l.82-.82.22.22-.82.82c-2.72,2.72-8.77,11.06-11.17,11.06-1,0-1.42-.6-1.42-1.69,0-1.74,1.42-4,2.89-6.1S229,21.49,229,19c0-.38-.11-.76-.6-.76-3.49,0-11.11,9.32-12.86,11.44-2.4,3.65-4.09,6.32-4.19,6.48H209.9c.44-.65,4.68-7.35,9.53-14.71a6.31,6.31,0,0,0,1.09-2.51c0-.33-.27-.49-.65-.49-1.8,0-4.25,3.27-7.24,6.26l-.82.82-.27-.11.87-.93c3.11-3.27,5.56-6.37,7.52-6.37.82,0,1.14.54,1.14,1.31C221.07,21.77,218.84,24.6,216.82,27.65Z"/><path class="cls-1" d="M236,15.07h3.54c1.25-1.85,2.18-3.32,2.89-4.47h1.42c-.76,1.2-1.69,2.67-2.89,4.47h7.41l-.16.33h-7.46c-2.51,3.87-6,9.1-10.62,16,0,.05-1.63,2.61-1.63,4,0,.54.22.87.87.87,3.32,0,9.75-8.12,12.58-10.95l.82-.82.22.22-.82.82c-2.72,2.72-9.31,11.06-12.8,11.06-1,0-1.42-.82-1.42-1.91a7.26,7.26,0,0,1,1.09-3.54c4.19-6.65,7.79-11.93,10.3-15.74h-3.49Z"/></g></g></svg>