<?xml version="1.0" encoding="utf-8"?>
<!-- Generator: Adobe Illustrator 22.1.0, SVG Export Plug-In . SVG Version: 6.00 Build 0)  -->
<svg version="1.1" id="Layer_1" xmlns="http://www.w3.org/2000/svg" xmlns:xlink="http://www.w3.org/1999/xlink" x="0px" y="0px"
	 viewBox="0 0 512 512" style="enable-background:new 0 0 512 512;" xml:space="preserve">
<style type="text/css">
	.st0{fill:#EDEBD8;}
</style>
<g id="XMLID_85_">
	<path id="XMLID_86_" class="st0" d="M255.9,0C114.8,0,0,114.8,0,255.9C0,397.1,114.8,512,255.9,512C397.1,512,512,397.1,512,255.9
		C512,114.8,397.1,0,255.9,0z M126,350c29.7-9,60.1-13.6,90.4-13.6c51.5,0,102.3,13.1,147,37.8c2.7,1.4,5.1,6.2,6.2,12.2
		c1.1,6,0.7,12.1-1.1,15.3c-2.2,4.1-6.7,6.7-11.4,6.7c-2.3,0-4.4-0.5-6.4-1.6c-41-22.6-87.5-34.5-134.3-34.5
		c-28.3,0-56.1,4.2-82.5,12.4c-1.3,0.4-2.6,0.6-3.9,0.6c-5.8,0-10.8-3.7-12.5-9.2C115.2,368.6,119.9,352,126,350z M114.9,255.7
		c33.1-9,67.2-13.5,101.6-13.5c61.7,0,123,14.9,177.3,43.2c3.8,1.9,6.6,5.2,7.9,9.2c1.3,4.1,0.9,8.4-1.1,12.3
		c-4.8,9.5-10.5,15.8-14.1,15.8c-2.5,0-5-0.6-7.4-1.8c-50.4-26.2-105.1-39.5-162.5-39.5c-32,0-63.3,4.2-93.1,12.5
		c-1.4,0.4-2.8,0.6-4.2,0.6c-7.2,0-13.5-4.8-15.4-11.8C101.3,273.6,106.8,257.9,114.9,255.7z M112,194.1c-1.5,0.4-3.1,0.6-4.6,0.6
		c-8.7,0-16.2-5.9-18.3-14.2c-2.6-10.6,4-22.9,13.6-25.4c37.4-9.2,75.7-13.8,113.7-13.8c73.6,0,144.1,16.6,209.6,49.2
		c4.5,2.2,7.9,6.1,9.5,10.9c1.6,4.8,1.3,9.9-1,14.5c-3.1,6.1-9.7,12.7-17,12.7c-2.8,0-5.7-0.7-8.3-1.9
		c-60.1-30.1-125-45.3-192.9-45.3C181.6,181.3,146.4,185.6,112,194.1z"/>
</g>
</svg>
