<svg xmlns="http://www.w3.org/2000/svg" viewBox="0 0 27.31 18.91"><defs><style>.cls-1{fill:#edebd8;}</style></defs><title>youtube</title><g id="Capa_2" data-name="Capa 2"><g id="Layer_1" data-name="Layer 1"><path class="cls-1" d="M22.69,0H4.62A4.62,4.62,0,0,0,0,4.62v9.67a4.62,4.62,0,0,0,4.62,4.62H22.69a4.62,4.62,0,0,0,4.62-4.62V4.62A4.62,4.62,0,0,0,22.69,0ZM19,9.64l-8.2,4.2a.2.2,0,0,1-.28-.09.15.15,0,0,1,0-.09V5.25A.21.21,0,0,1,10.72,5l.09,0L19,9.27a.21.21,0,0,1,.09.28.2.2,0,0,1-.09.09Z"/></g></g></svg>